HIERARCHY
ROOT Hip
{
	OFFSET	0.0000	0.0000	0.0000
	CHANNELS 6 Xposition Yposition Zposition Xrotation Yrotation Zrotation
	JOINT LowerSpine
	{
		OFFSET	0.0000	10.1825	-5.5102
		CHANNELS 3 Xrotation Yrotation Zrotation
		JOINT MiddleSpine
		{
			OFFSET	0.0000	9.2923	0.4855
			CHANNELS 3 Xrotation Yrotation Zrotation
			JOINT Chest
			{
				OFFSET	0.0000	11.4981	-2.5593
				CHANNELS 3 Xrotation Yrotation Zrotation
				JOINT Neck
				{
					OFFSET	0.0000	25.9106	-0.5389
					CHANNELS 3 Xrotation Yrotation Zrotation
					JOINT Head
					{
						OFFSET	-0.0001	14.6320	3.9799
						CHANNELS 3 Xrotation Yrotation Zrotation
						End Site
						{
							OFFSET	0.0001	20.4445	0.6104
						}
					}
				}
				JOINT LClavicle
				{
					OFFSET	2.6159	25.0050	8.5669
					CHANNELS 3 Xrotation Yrotation Zrotation
					JOINT LShoulder
					{
						OFFSET	15.2823	3.5866	-5.8035
						CHANNELS 3 Xrotation Yrotation Zrotation
						JOINT LForearm
						{
							OFFSET	32.4627	-0.1151	-0.2813
							CHANNELS 3 Xrotation Yrotation Zrotation
							JOINT LHand
							{
								OFFSET	27.0808	0.0785	-0.1622
								CHANNELS 3 Xrotation Yrotation Zrotation
								JOINT LFinger1
								{
									OFFSET	10.4958	0.9179	2.9152
									CHANNELS 3 Xrotation Yrotation Zrotation
									JOINT LFinger11
									{
										OFFSET	3.9259	-0.9573	0.6918
										CHANNELS 3 Xrotation Yrotation Zrotation
										JOINT LFinger12
										{
											OFFSET	2.6801	-0.6537	0.4724
											CHANNELS 3 Xrotation Yrotation Zrotation
											End Site
											{
												OFFSET	1.9072	-0.5693	0.3094
											}
										}
									}
								}
								JOINT LFinger2
								{
									OFFSET	10.6524	1.0600	0.2538
									CHANNELS 3 Xrotation Yrotation Zrotation
									JOINT LFinger21
									{
										OFFSET	4.8542	0.0135	-0.0287
										CHANNELS 3 Xrotation Yrotation Zrotation
										JOINT LFinger22
										{
											OFFSET	2.6907	0.0083	-0.0164
											CHANNELS 3 Xrotation Yrotation Zrotation
											End Site
											{
												OFFSET	2.4167	-0.1707	0.0032
											}
										}
									}
								}
								JOINT LFinger3
								{
									OFFSET	10.0953	0.7074	-2.3884
									CHANNELS 3 Xrotation Yrotation Zrotation
									JOINT LFinger31
									{
										OFFSET	4.4047	-0.2230	-0.2758
										CHANNELS 3 Xrotation Yrotation Zrotation
										JOINT LFinger32
										{
											OFFSET	2.5100	-0.1263	-0.1577
											CHANNELS 3 Xrotation Yrotation Zrotation
											End Site
											{
												OFFSET	2.2193	-0.2729	-0.1049
											}
										}
									}
								}
								JOINT LFinger4
								{
									OFFSET	9.3681	-0.7119	-4.1247
									CHANNELS 3 Xrotation Yrotation Zrotation
									JOINT LFinger41
									{
										OFFSET	2.7093	-0.5650	-0.7479
										CHANNELS 3 Xrotation Yrotation Zrotation
										JOINT LFinger42
										{
											OFFSET	1.9868	-0.4137	-0.5488
											CHANNELS 3 Xrotation Yrotation Zrotation
											End Site
											{
												OFFSET	1.7634	-0.4845	-0.4046
											}
										}
									}
								}
								JOINT LFinger0
								{
									OFFSET	2.1712	-1.6434	1.6460
									CHANNELS 3 Xrotation Yrotation Zrotation
									JOINT LFinger01
									{
										OFFSET	4.0424	-1.3275	3.0477
										CHANNELS 3 Xrotation Yrotation Zrotation
										JOINT LFinger02
										{
											OFFSET	2.6619	-0.9525	1.9178
											CHANNELS 3 Xrotation Yrotation Zrotation
											End Site
											{
												OFFSET	1.9575	-0.6738	1.3404
											}
										}
									}
								}
							}
						}
					}
				}
				JOINT RClavicle
				{
					OFFSET	-2.6159	25.0050	8.5668
					CHANNELS 3 Xrotation Yrotation Zrotation
					JOINT RShoulder
					{
						OFFSET	-15.2850	3.5872	-5.8045
						CHANNELS 3 Xrotation Yrotation Zrotation
						JOINT RForearm
						{
							OFFSET	-32.4627	-0.1151	-0.2813
							CHANNELS 3 Xrotation Yrotation Zrotation
							JOINT RHand
							{
								OFFSET	-27.0808	0.0786	-0.1622
								CHANNELS 3 Xrotation Yrotation Zrotation
								JOINT RFinger1
								{
									OFFSET	-10.4958	0.9180	2.9152
									CHANNELS 3 Xrotation Yrotation Zrotation
									JOINT RFinger11
									{
										OFFSET	-3.9259	-0.9573	0.6918
										CHANNELS 3 Xrotation Yrotation Zrotation
										JOINT RFinger12
										{
											OFFSET	-2.6801	-0.6538	0.4724
											CHANNELS 3 Xrotation Yrotation Zrotation
											End Site
											{
												OFFSET	-1.9072	-0.5693	0.3094
											}
										}
									}
								}
								JOINT RFinger2
								{
									OFFSET	-10.6524	1.0601	0.2538
									CHANNELS 3 Xrotation Yrotation Zrotation
									JOINT RFinger21
									{
										OFFSET	-4.8542	0.0136	-0.0287
										CHANNELS 3 Xrotation Yrotation Zrotation
										JOINT RFinger22
										{
											OFFSET	-2.6907	0.0082	-0.0165
											CHANNELS 3 Xrotation Yrotation Zrotation
											End Site
											{
												OFFSET	-2.4167	-0.1707	0.0032
											}
										}
									}
								}
								JOINT RFinger3
								{
									OFFSET	-10.0954	0.7075	-2.3884
									CHANNELS 3 Xrotation Yrotation Zrotation
									JOINT RFinger31
									{
										OFFSET	-4.4047	-0.2230	-0.2758
										CHANNELS 3 Xrotation Yrotation Zrotation
										JOINT RFinger32
										{
											OFFSET	-2.5100	-0.1263	-0.1577
											CHANNELS 3 Xrotation Yrotation Zrotation
											End Site
											{
												OFFSET	-2.2193	-0.2729	-0.1049
											}
										}
									}
								}
								JOINT RFinger4
								{
									OFFSET	-9.3681	-0.7119	-4.1247
									CHANNELS 3 Xrotation Yrotation Zrotation
									JOINT RFinger41
									{
										OFFSET	-2.7093	-0.5650	-0.7479
										CHANNELS 3 Xrotation Yrotation Zrotation
										JOINT RFinger42
										{
											OFFSET	-1.9867	-0.4136	-0.5488
											CHANNELS 3 Xrotation Yrotation Zrotation
											End Site
											{
												OFFSET	-1.7634	-0.4845	-0.4046
											}
										}
									}
								}
								JOINT RFinger0
								{
									OFFSET	-2.1712	-1.6432	1.6459
									CHANNELS 3 Xrotation Yrotation Zrotation
									JOINT RFinger01
									{
										OFFSET	-4.0424	-1.3277	3.0479
										CHANNELS 3 Xrotation Yrotation Zrotation
										JOINT RFinger02
										{
											OFFSET	-2.6618	-0.9524	1.9177
											CHANNELS 3 Xrotation Yrotation Zrotation
											End Site
											{
												OFFSET	-1.9575	-0.6738	1.3404
											}
										}
									}
								}
							}
						}
					}
				}
			}
		}
	}
	JOINT RThigh
	{
		OFFSET	-10.8927	4.6027	-0.8978
		CHANNELS 3 Xrotation Yrotation Zrotation
		JOINT RShin
		{
			OFFSET	-0.8716	-47.3783	0.0000
			CHANNELS 3 Xrotation Yrotation Zrotation
			JOINT RFoot
			{
				OFFSET	0.0000	-46.5226	0.0000
				CHANNELS 3 Xrotation Yrotation Zrotation
				JOINT RToe
				{
					OFFSET	0.0000	-5.1132	10.6925
					CHANNELS 3 Xrotation Yrotation Zrotation
					End Site
					{
						OFFSET	0.0000	0.0000	7.1732
					}
				}
			}
		}
	}
	JOINT LThigh
	{
		OFFSET	10.8926	4.6031	-0.8978
		CHANNELS 3 Xrotation Yrotation Zrotation
		JOINT LShin
		{
			OFFSET	0.8717	-47.3786	0.0000
			CHANNELS 3 Xrotation Yrotation Zrotation
			JOINT LFoot
			{
				OFFSET	0.0000	-46.5226	0.0000
				CHANNELS 3 Xrotation Yrotation Zrotation
				JOINT LToe
				{
					OFFSET	0.0000	-5.1133	10.6925
					CHANNELS 3 Xrotation Yrotation Zrotation
					End Site
					{
						OFFSET	0.0000	0.0000	7.1732
					}
				}
			}
		}
	}
}
MOTION
Frames:	8
Frame Time: 0.0333333000
	10.9683	98.5765	-90.9018	-5.791693	-3.803340	-2.331030	0.000000	0.000000	0.000000	1.087666	1.356564	0.580047	3.581280	4.581669	1.856592	0.000000	0.000000	0.000000	5.492929	1.544219	-3.818056	0.000000	0.000000	-14.836010	22.002970	-44.745230	-48.184880	0.000000	-19.130350	0.000000	0.000000	0.000000	0.000000	0.000000	0.000000	0.000000	0.000000	0.000000	0.000000	0.000000	0.000000	0.000000	0.000000	0.000000	0.000000	0.000000	0.000000	0.000000	0.000000	0.000000	0.000000	0.000000	0.000000	0.000000	0.000000	0.000000	0.000000	0.000000	0.000000	0.000000	0.000000	0.000000	0.000000	0.000000	0.000000	0.000000	0.000000	0.000000	0.000000	0.000000	0.000000	0.000000	0.000000	0.000000	0.000000	0.000000	0.000000	0.000000	0.000000	0.000000	15.306910	9.175744	22.264070	58.888000	0.000000	13.675240	0.000000	29.037090	-18.042380	-24.526190	0.000000	0.000000	0.000000	0.000000	0.000000	0.000000	0.000000	0.000000	0.000000	0.000000	0.000000	0.000000	0.000000	0.000000	0.000000	0.000000	0.000000	0.000000	0.000000	0.000000	0.000000	0.000000	0.000000	0.000000	0.000000	0.000000	0.000000	0.000000	0.000000	0.000000	0.000000	0.000000	0.000000	0.000000	0.000000	0.000000	0.000000	0.000000	0.000000	0.000000	0.000000	0.000000	0.000000	0.000000	0.000000	-1.146291	-1.223930	0.575405	12.586680	0.000001	0.000000	-0.268738	-0.634051	-0.305219	0.000000	0.000000	0.000000	4.602218	0.417918	3.088334	2.597259	0.000000	0.000000	-0.556407	0.066253	0.031446	0.000000	0.000000	0.000000
	11.0196	98.7425	-90.9097	-5.693528	-3.396782	-2.530545	0.000000	0.000000	0.000000	1.063454	1.361619	0.582633	3.497060	4.582294	1.850202	0.000000	0.000000	0.000000	4.053739	3.182096	-4.144234	0.000000	0.000000	-15.037560	19.237710	-43.752600	-50.669190	0.000000	-18.103630	0.000000	0.000000	0.000000	0.000000	0.000000	0.000000	0.000000	0.000000	0.000000	0.000000	0.000000	0.000000	0.000000	0.000000	0.000000	0.000000	0.000000	0.000000	0.000000	0.000000	0.000000	0.000000	0.000000	0.000000	0.000000	0.000000	0.000000	0.000000	0.000000	0.000000	0.000000	0.000000	0.000000	0.000000	0.000000	0.000000	0.000000	0.000000	0.000000	0.000000	0.000000	0.000000	0.000000	0.000000	0.000000	0.000000	0.000000	0.000000	0.000000	0.000000	0.000000	15.488420	12.627630	26.870710	58.417180	0.000000	14.418040	0.000000	16.341700	-20.701590	-26.773140	0.000000	0.000000	0.000000	0.000000	0.000000	0.000000	0.000000	0.000000	0.000000	0.000000	0.000000	0.000000	0.000000	0.000000	0.000000	0.000000	0.000000	0.000000	0.000000	0.000000	0.000000	0.000000	0.000000	0.000000	0.000000	0.000000	0.000000	0.000000	0.000000	0.000000	0.000000	0.000000	0.000000	0.000000	0.000000	0.000000	0.000000	0.000000	0.000000	0.000000	0.000000	0.000000	0.000000	0.000000	0.000000	-1.266516	-1.391507	0.895054	12.516590	0.000001	0.000000	-0.016820	-0.648526	-0.310650	0.000000	0.000000	0.000000	4.361097	0.362526	3.298852	3.182618	0.000000	0.000000	-1.192905	-0.255004	-0.124093	0.000000	0.000000	0.000000
	11.1328	98.7865	-91.0146	-5.456099	-3.107974	-2.774303	0.000000	0.000000	0.000000	1.038675	1.371165	0.673234	3.404500	4.615981	2.150019	0.000000	0.000000	0.000000	3.374847	3.821121	-4.388860	0.000000	0.000000	-15.189480	18.070480	-43.645030	-51.929880	0.000000	-18.092320	0.000000	0.000000	0.000000	0.000000	0.000000	0.000000	0.000000	0.000000	0.000000	0.000000	0.000000	0.000000	0.000000	0.000000	0.000000	0.000000	0.000000	0.000000	0.000000	0.000000	0.000000	0.000000	0.000000	0.000000	0.000000	0.000000	0.000000	0.000000	0.000000	0.000000	0.000000	0.000000	0.000000	0.000000	0.000000	0.000000	0.000000	0.000000	0.000000	0.000000	0.000000	0.000000	0.000000	0.000000	0.000000	0.000000	0.000000	0.000000	0.000000	0.000000	0.000000	15.368920	17.494820	31.601470	56.210110	0.000000	17.263540	0.000000	9.069882	-22.832370	-28.824030	0.000000	0.000000	0.000000	0.000000	0.000000	0.000000	0.000000	0.000000	0.000000	0.000000	0.000000	0.000000	0.000000	0.000000	0.000000	0.000000	0.000000	0.000000	0.000000	0.000000	0.000000	0.000000	0.000000	0.000000	0.000000	0.000000	0.000000	0.000000	0.000000	0.000000	0.000000	0.000000	0.000000	0.000000	0.000000	0.000000	0.000000	0.000000	0.000000	0.000000	0.000000	0.000000	0.000000	0.000000	0.000000	-1.286956	-1.377212	1.226570	12.002690	0.000001	0.000000	0.130144	-0.505664	-0.238617	0.000000	0.000000	0.000000	3.893813	0.325631	3.517692	3.694833	0.000000	0.000000	-1.900101	-0.652200	-0.324489	0.000000	0.000000	0.000000
	11.4144	98.6166	-91.2012	-5.077247	-2.609129	-2.983683	0.000000	0.000000	0.000000	1.012062	1.387802	0.827338	3.300122	4.680626	2.665827	0.000000	0.000000	0.000000	2.059887	6.148407	-4.992165	0.000000	0.000000	-15.266070	19.492410	-45.684460	-51.164310	0.000000	-19.054260	0.000000	0.000000	0.000000	0.000000	0.000000	0.000000	0.000000	0.000000	0.000000	0.000000	0.000000	0.000000	0.000000	0.000000	0.000000	0.000000	0.000000	0.000000	0.000000	0.000000	0.000000	0.000000	0.000000	0.000000	0.000000	0.000000	0.000000	0.000000	0.000000	0.000000	0.000000	0.000000	0.000000	0.000000	0.000000	0.000000	0.000000	0.000000	0.000000	0.000000	0.000000	0.000000	0.000000	0.000000	0.000000	0.000000	0.000000	0.000000	0.000000	0.000000	0.000000	15.072860	23.094760	35.636320	52.804920	0.000000	20.735290	0.000000	-3.889619	-24.444420	-35.786950	0.000000	0.000000	0.000000	0.000000	0.000000	0.000000	0.000000	0.000000	0.000000	0.000000	0.000000	0.000000	0.000000	0.000000	0.000000	0.000000	0.000000	0.000000	0.000000	0.000000	0.000000	0.000000	0.000000	0.000000	0.000000	0.000000	0.000000	0.000000	0.000000	0.000000	0.000000	0.000000	0.000000	0.000000	0.000000	0.000000	0.000000	0.000000	0.000000	0.000000	0.000000	0.000000	0.000000	0.000000	0.000000	-0.898671	-0.906496	1.361959	10.397060	0.000001	0.000000	0.160105	-0.009419	-0.005469	0.000000	0.000000	0.000000	3.142230	0.280836	3.681520	4.009485	0.000000	0.000000	-2.256544	-0.895537	-0.450999	0.000000	0.000000	0.000000
	11.6992	98.3842	-91.3676	-4.684682	-2.350246	-3.140276	0.000000	0.000000	0.000000	0.934651	1.386827	0.953917	3.029788	4.680466	3.095899	0.000000	0.000000	0.000000	1.846707	6.988539	-5.344940	0.000000	0.000000	-15.320050	22.541710	-48.728420	-49.100090	0.000000	-19.501520	0.000000	0.000000	0.000000	0.000000	0.000000	0.000000	0.000000	0.000000	0.000000	0.000000	0.000000	0.000000	0.000000	0.000000	0.000000	0.000000	0.000000	0.000000	0.000000	0.000000	0.000000	0.000000	0.000000	0.000000	0.000000	0.000000	0.000000	0.000000	0.000000	0.000000	0.000000	0.000000	0.000000	0.000000	0.000000	0.000000	0.000000	0.000000	0.000000	0.000000	0.000000	0.000000	0.000000	0.000000	0.000000	0.000000	0.000000	0.000000	0.000000	0.000000	0.000000	14.884460	26.183780	37.566420	50.637180	0.000000	22.125090	0.000000	-7.287702	-23.972180	-37.755010	0.000000	0.000000	0.000000	0.000000	0.000000	0.000000	0.000000	0.000000	0.000000	0.000000	0.000000	0.000000	0.000000	0.000000	0.000000	0.000000	0.000000	0.000000	0.000000	0.000000	0.000000	0.000000	0.000000	0.000000	0.000000	0.000000	0.000000	0.000000	0.000000	0.000000	0.000000	0.000000	0.000000	0.000000	0.000000	0.000000	0.000000	0.000000	0.000000	0.000000	0.000000	0.000000	0.000000	0.000000	0.000000	-0.609054	-0.378527	1.361300	8.691996	0.000001	0.000000	0.300506	0.637610	0.301400	0.000000	0.000000	0.000000	2.441569	0.247320	3.848598	4.139324	0.000000	0.000000	-2.247345	-0.919197	-0.460713	0.000000	0.000000	0.000000
	11.8881	98.3436	-91.4280	-4.383179	-2.378053	-3.267191	0.000000	0.000000	0.000000	0.808707	1.341222	1.021998	2.605737	4.524238	3.337443	0.000000	0.000000	0.000000	1.803039	9.466348	-5.359654	0.000000	0.000000	-15.369090	26.073060	-51.317510	-46.626450	0.000000	-19.155060	0.000000	0.000000	0.000000	0.000000	0.000000	0.000000	0.000000	0.000000	0.000000	0.000000	0.000000	0.000000	0.000000	0.000000	0.000000	0.000000	0.000000	0.000000	0.000000	0.000000	0.000000	0.000000	0.000000	0.000000	0.000000	0.000000	0.000000	0.000000	0.000000	0.000000	0.000000	0.000000	0.000000	0.000000	0.000000	0.000000	0.000000	0.000000	0.000000	0.000000	0.000000	0.000000	0.000000	0.000000	0.000000	0.000000	0.000000	0.000000	0.000000	0.000000	0.000000	14.834890	26.211970	37.727090	50.223720	0.000000	21.311450	0.000000	-5.155754	-20.444490	-36.586990	0.000000	0.000000	0.000000	0.000000	0.000000	0.000000	0.000000	0.000000	0.000000	0.000000	0.000000	0.000000	0.000000	0.000000	0.000000	0.000000	0.000000	0.000000	0.000000	0.000000	0.000000	0.000000	0.000000	0.000000	0.000000	0.000000	0.000000	0.000000	0.000000	0.000000	0.000000	0.000000	0.000000	0.000000	0.000000	0.000000	0.000000	0.000000	0.000000	0.000000	0.000000	0.000000	0.000000	0.000000	0.000000	-0.932128	-0.117694	1.302807	8.409201	0.000001	0.000000	0.485994	1.045287	0.496403	0.000000	0.000000	0.000000	2.001216	0.229050	3.960732	4.396116	0.000000	0.000000	-1.973442	-0.696999	-0.348340	0.000000	0.000000	0.000000
	12.0809	98.4490	-91.4618	-4.150393	-2.535076	-3.371315	0.000000	0.000000	0.000000	0.707383	1.255955	1.074670	2.268490	4.235843	3.526107	0.000000	0.000000	0.000000	2.010371	11.298920	-5.244029	0.000000	0.000000	-15.409150	28.675450	-52.627290	-44.877540	0.000000	-18.927600	0.000000	0.000000	0.000000	0.000000	0.000000	0.000000	0.000000	0.000000	0.000000	0.000000	0.000000	0.000000	0.000000	0.000000	0.000000	0.000000	0.000000	0.000000	0.000000	0.000000	0.000000	0.000000	0.000000	0.000000	0.000000	0.000000	0.000000	0.000000	0.000000	0.000000	0.000000	0.000000	0.000000	0.000000	0.000000	0.000000	0.000000	0.000000	0.000000	0.000000	0.000000	0.000000	0.000000	0.000000	0.000000	0.000000	0.000000	0.000000	0.000000	0.000000	0.000000	14.672740	26.539250	38.135120	48.984040	0.000000	20.549600	0.000000	-0.229344	-16.982370	-32.033490	0.000000	0.000000	0.000000	0.000000	0.000000	0.000000	0.000000	0.000000	0.000000	0.000000	0.000000	0.000000	0.000000	0.000000	0.000000	0.000000	0.000000	0.000000	0.000000	0.000000	0.000000	0.000000	0.000000	0.000000	0.000000	0.000000	0.000000	0.000000	0.000000	0.000000	0.000000	0.000000	0.000000	0.000000	0.000000	0.000000	0.000000	0.000000	0.000000	0.000000	0.000000	0.000000	0.000000	0.000000	0.000000	-1.613047	-0.079441	1.141536	9.141376	0.000001	0.000000	0.762319	1.013953	0.477679	0.000000	0.000000	0.000000	1.722222	0.198661	3.853752	4.801036	0.000000	0.000000	-1.577314	-0.390015	-0.193697	0.000000	0.000000	0.000000
	12.3008	98.4000	-91.5432	-3.908345	-2.922933	-3.449618	0.000000	0.000000	0.000000	0.672482	1.168547	1.137665	2.145958	3.942581	3.739581	0.000000	0.000000	0.000000	2.025401	14.053730	-5.101877	0.000000	0.000000	-15.469230	28.830400	-52.413350	-45.113070	0.000000	-18.808530	0.000000	0.000000	0.000000	0.000000	0.000000	0.000000	0.000000	0.000000	0.000000	0.000000	0.000000	0.000000	0.000000	0.000000	0.000000	0.000000	0.000000	0.000000	0.000000	0.000000	0.000000	0.000000	0.000000	0.000000	0.000000	0.000000	0.000000	0.000000	0.000000	0.000000	0.000000	0.000000	0.000000	0.000000	0.000000	0.000000	0.000000	0.000000	0.000000	0.000000	0.000000	0.000000	0.000000	0.000000	0.000000	0.000000	0.000000	0.000000	0.000000	0.000000	0.000000	14.326110	28.954840	39.689990	45.822460	0.000000	20.968920	0.000000	3.178558	-14.739910	-29.806910	0.000000	0.000000	0.000000	0.000000	0.000000	0.000000	0.000000	0.000000	0.000000	0.000000	0.000000	0.000000	0.000000	0.000000	0.000000	0.000000	0.000000	0.000000	0.000000	0.000000	0.000000	0.000000	0.000000	0.000000	0.000000	0.000000	0.000000	0.000000	0.000000	0.000000	0.000000	0.000000	0.000000	0.000000	0.000000	0.000000	0.000000	0.000000	0.000000	0.000000	0.000000	0.000000	0.000000	0.000000	0.000000	-2.098449	-0.090298	0.993974	9.385943	0.000001	0.000000	0.974620	0.659277	0.308842	0.000000	0.000000	0.000000	1.476164	0.173784	3.613312	4.857103	0.000000	0.000000	-1.265173	-0.238031	-0.116207	0.000000	0.000000	0.000000
